<svg width="41" height="36" viewBox="0 0 41 36" fill="none" xmlns="http://www.w3.org/2000/svg">
<path d="M12.7882 27.0549C12.9878 27.0549 13.1875 26.8879 13.3334 26.592C16.2746 20.7712 17.5878 15.8004 17.5878 10.4805V10.4501C17.68 9.33451 17.4649 7.73322 16.9581 5.79802C16.4436 3.84764 15.3377 2.216 13.6636 0.956225C13.3027 0.68302 13.08 0.546417 12.8496 0.546417C12.6192 0.546417 12.3812 0.675431 11.9895 0.941047C11.1218 1.5254 10.3769 2.27671 9.78555 3.1874C8.51845 5.13019 8.14216 7.30065 7.97321 9.95681C7.8273 12.2259 8.08072 14.662 8.79491 17.6141C9.50909 20.5814 10.6072 23.4956 12.1738 26.5085C12.3505 26.8424 12.5808 27.0473 12.8035 27.0473L12.7882 27.0549Z" fill="url(#paint0_linear_13_48)"/>
<path d="M25.4745 9.70636C25.2211 6.80736 24.0769 4.30298 21.6656 2.48161C19.8532 1.11559 17.8028 0.364273 15.4913 0.136603C16.6125 1.40397 17.6108 2.71687 18.1791 4.2878C18.901 6.28371 19.2389 8.37069 19.2926 10.4729C19.3771 13.8424 18.7474 17.1208 17.726 20.3234C17.0426 22.4711 16.2132 24.5581 15.2072 26.5768C15.0997 26.7968 14.7541 27.0093 15.1995 27.3736C15.7371 27.8214 15.1534 29.2177 14.4239 29.2557C13.3565 29.3164 12.2814 29.3012 11.2062 29.2557C10.638 29.2329 9.80091 27.7379 10.2002 27.5026C10.9221 27.0776 10.4613 26.7817 10.2847 26.4326C9.53214 24.9527 8.91778 23.4197 8.35719 21.8716C6.56789 16.9615 5.83067 11.9375 6.7522 6.75423C7.1592 4.45476 8.00394 2.3526 9.73948 0.683012C9.92378 0.500876 10.1542 0.333917 10.2002 0C8.4647 0.182137 6.87507 0.766492 5.34687 1.54816C2.89715 2.79276 1.33823 4.74314 0.554934 7.33859C-0.343555 10.2983 -0.0747759 13.2277 0.816033 16.1267C2.09081 20.2855 4.53286 23.6929 7.81963 26.5312C9.19424 27.7227 9.83163 29.2177 9.88539 30.9936C9.9161 32.0485 9.79323 33.1033 10.0467 34.1506C10.3692 35.4635 10.8146 35.8657 12.1278 35.8809C12.5041 35.8809 12.8727 35.8809 13.249 35.8809C14.9154 35.8657 15.6219 35.2131 15.691 33.5663C15.7294 32.648 15.6603 31.7221 15.714 30.8039C15.7985 29.195 16.3898 27.7607 17.6032 26.6754C19.2619 25.1804 20.7978 23.5943 22.0572 21.7501C24.553 18.0998 25.8815 14.1156 25.4899 9.69118L25.4745 9.70636ZM13.8863 31.7601C13.5177 31.7297 13.1414 31.7601 12.7728 31.7601C12.4042 31.7601 12.0279 31.7373 11.6593 31.7601C11.1218 31.8056 10.9298 31.6083 10.9298 31.0619C10.9298 30.5155 11.1294 30.3409 11.6593 30.3637C12.4042 30.394 13.1491 30.4016 13.894 30.3637C14.4393 30.3333 14.6236 30.5231 14.6236 31.0619C14.6236 31.6083 14.4393 31.8132 13.894 31.7601H13.8863Z" fill="#1F9CEA"/>
<path d="M40.4219 9.82019H33.3032C32.9935 9.82019 32.7426 10.0665 32.7426 10.3704C32.7426 10.6743 32.9935 10.9206 33.3032 10.9206H40.4219C40.7315 10.9206 40.9825 10.6743 40.9825 10.3704C40.9825 10.0665 40.7315 9.82019 40.4219 9.82019Z" fill="#1F9CEA"/>
<path d="M33.1539 16.6351H29.7136C29.4634 16.6351 29.2605 16.8356 29.2605 17.0829C29.2605 17.3302 29.4634 17.5306 29.7136 17.5306H33.1539C33.4042 17.5306 33.607 17.3302 33.607 17.0829C33.607 16.8356 33.4042 16.6351 33.1539 16.6351Z" fill="#1F9CEA"/>
<path d="M28.7152 22.7898H25.0137C24.7126 22.7898 24.4685 23.0311 24.4685 23.3286V23.3362C24.4685 23.6338 24.7126 23.8751 25.0137 23.8751H28.7152C29.0163 23.8751 29.2604 23.6338 29.2604 23.3362V23.3286C29.2604 23.0311 29.0163 22.7898 28.7152 22.7898Z" fill="#1F9CEA"/>
<path d="M34.7085 3.24811H30.3005C30.0121 3.24811 29.7783 3.47915 29.7783 3.76416V3.77175C29.7783 4.05676 30.0121 4.2878 30.3005 4.2878H34.7085C34.9969 4.2878 35.2307 4.05676 35.2307 3.77175V3.76416C35.2307 3.47915 34.9969 3.24811 34.7085 3.24811Z" fill="#1F9CEA"/>
<defs>
<linearGradient id="paint0_linear_13_48" x1="12.7711" y1="0.546417" x2="12.7711" y2="27.0549" gradientUnits="userSpaceOnUse">
<stop stop-color="#87E34F"/>
<stop offset="1" stop-color="#1F9CEA"/>
</linearGradient>
</defs>
</svg>
